<svg xmlns="http://www.w3.org/2000/svg" width="40" height="40" viewBox="0 0 40 40">
  <g id="_0_plain" data-name="0_plain" transform="translate(-145 -616)">
    <path id="Path_8" data-name="Path 8" d="M9.961-7.061a13.757,13.757,0,0,1-.317,3.115,7.259,7.259,0,0,1-.918,2.29A4.132,4.132,0,0,1,7.251-.239,4.037,4.037,0,0,1,5.264.244,3.77,3.77,0,0,1,3.384-.22,3.94,3.94,0,0,1,1.992-1.572a6.855,6.855,0,0,1-.859-2.183A13.5,13.5,0,0,1,.84-6.719a15.277,15.277,0,0,1,.308-3.242,7.416,7.416,0,0,1,.9-2.358A4.021,4.021,0,0,1,3.53-13.755a4.154,4.154,0,0,1,2.026-.483Q9.961-14.238,9.961-7.061ZM8.32-6.9q0-5.977-2.842-5.977-3,0-3,6.084,0,5.674,2.939,5.674Q8.32-1.123,8.32-6.9Z" transform="translate(160 645)" fill="#707070"/>
  </g>
</svg>
