<svg xmlns="http://www.w3.org/2000/svg" width="40" height="40" viewBox="0 0 40 40">
  <g id="_2_plain" data-name="2_plain" transform="translate(-145 -616)">
    <path id="Path_14" data-name="Path 14" d="M7.539-10.332a2.9,2.9,0,0,0-.2-1.123,2.225,2.225,0,0,0-.547-.8,2.241,2.241,0,0,0-.815-.474,3.193,3.193,0,0,0-1.016-.156,3.359,3.359,0,0,0-.918.127,4.463,4.463,0,0,0-.874.352,5.377,5.377,0,0,0-.82.537,5.925,5.925,0,0,0-.737.693v-1.719a4.788,4.788,0,0,1,1.509-1,5.312,5.312,0,0,1,2.036-.347,4.915,4.915,0,0,1,1.592.249,3.65,3.65,0,0,1,1.27.728,3.363,3.363,0,0,1,.845,1.182,3.985,3.985,0,0,1,.308,1.611,5.525,5.525,0,0,1-.19,1.5A4.651,4.651,0,0,1,8.4-7.7a6.126,6.126,0,0,1-.972,1.143A13.764,13.764,0,0,1,6.055-5.439q-.986.7-1.626,1.2a7.188,7.188,0,0,0-1.016.933,2.706,2.706,0,0,0-.527.869,3.038,3.038,0,0,0-.151,1H9.707V0H1.064V-.693a5.778,5.778,0,0,1,.2-1.582,4.108,4.108,0,0,1,.645-1.3A7.208,7.208,0,0,1,3.081-4.8q.728-.615,1.782-1.387A11.267,11.267,0,0,0,6.138-7.236a5.433,5.433,0,0,0,.825-1,3.577,3.577,0,0,0,.444-1.011A4.358,4.358,0,0,0,7.539-10.332Z" transform="translate(160 645)" fill="#707070"/>
  </g>
</svg>
