<svg xmlns="http://www.w3.org/2000/svg" width="40" height="40" viewBox="0 0 40 40">
  <g id="_2_rounded" data-name="2_rounded" transform="translate(-145 -616)">
    <g id="Path_56" data-name="Path 56" transform="translate(145 616)" fill="rgba(255,255,255,0)">
      <path d="M 20 1 C 17.4345703125 1 14.94642066955566 1.502220153808594 12.60465049743652 2.492698669433594 C 10.34226036071777 3.449611663818359 8.310220718383789 4.819721221923828 6.564968109130859 6.564968109130859 C 4.819721221923828 8.310220718383789 3.449611663818359 10.34226036071777 2.492698669433594 12.60465049743652 C 1.502220153808594 14.94642066955566 1 17.4345703125 1 20 C 1 22.5654296875 1.502220153808594 25.05358123779297 2.492698669433594 27.39535140991211 C 3.449611663818359 29.65773963928223 4.819721221923828 31.68978118896484 6.564968109130859 33.43502807617188 C 8.310220718383789 35.18027877807617 10.34226036071777 36.55038833618164 12.60465049743652 37.50730133056641 C 14.94642066955566 38.49777984619141 17.4345703125 39 20 39 C 22.5654296875 39 25.05358123779297 38.49777984619141 27.39535140991211 37.50730133056641 C 29.65773963928223 36.55038833618164 31.68978118896484 35.18027877807617 33.43502807617188 33.43502807617188 C 35.18027877807617 31.68978118896484 36.55038833618164 29.65773963928223 37.50730133056641 27.39535140991211 C 38.49777984619141 25.05358123779297 39 22.5654296875 39 20 C 39 17.4345703125 38.49777984619141 14.94642066955566 37.50730133056641 12.60465049743652 C 36.55038833618164 10.34226036071777 35.18027877807617 8.310220718383789 33.43502807617188 6.564968109130859 C 31.68978118896484 4.819721221923828 29.65773963928223 3.449611663818359 27.39535140991211 2.492698669433594 C 25.05358123779297 1.502220153808594 22.5654296875 1 20 1 M 20 0 C 31.04570007324219 0 40 8.954299926757812 40 20 C 40 31.04570007324219 31.04570007324219 40 20 40 C 8.954299926757812 40 0 31.04570007324219 0 20 C 0 8.954299926757812 8.954299926757812 0 20 0 Z" stroke="none" fill="#707070"/>
    </g>
    <path id="Path_55" data-name="Path 55" d="M7.539-10.332a2.9,2.9,0,0,0-.2-1.123,2.225,2.225,0,0,0-.547-.8,2.241,2.241,0,0,0-.815-.474,3.193,3.193,0,0,0-1.016-.156,3.359,3.359,0,0,0-.918.127,4.463,4.463,0,0,0-.874.352,5.377,5.377,0,0,0-.82.537,5.925,5.925,0,0,0-.737.693v-1.719a4.788,4.788,0,0,1,1.509-1,5.312,5.312,0,0,1,2.036-.347,4.915,4.915,0,0,1,1.592.249,3.65,3.65,0,0,1,1.27.728,3.363,3.363,0,0,1,.845,1.182,3.985,3.985,0,0,1,.308,1.611,5.525,5.525,0,0,1-.19,1.5A4.651,4.651,0,0,1,8.4-7.7a6.126,6.126,0,0,1-.972,1.143A13.764,13.764,0,0,1,6.055-5.439q-.986.7-1.626,1.2a7.188,7.188,0,0,0-1.016.933,2.706,2.706,0,0,0-.527.869,3.038,3.038,0,0,0-.151,1H9.707V0H1.064V-.693a5.778,5.778,0,0,1,.2-1.582,4.108,4.108,0,0,1,.645-1.3A7.208,7.208,0,0,1,3.081-4.8q.728-.615,1.782-1.387A11.267,11.267,0,0,0,6.138-7.236a5.433,5.433,0,0,0,.825-1,3.577,3.577,0,0,0,.444-1.011A4.358,4.358,0,0,0,7.539-10.332Z" transform="translate(160 645)" fill="#707070"/>
  </g>
</svg>
