<svg xmlns="http://www.w3.org/2000/svg" width="40" height="40" viewBox="0 0 40 40">
  <g id="_3_plain" data-name="3_plain" transform="translate(-219 -616)">
    <path id="Path_12" data-name="Path 12" d="M9.307-3.965A4.082,4.082,0,0,1,8.95-2.241,3.806,3.806,0,0,1,7.944-.913a4.643,4.643,0,0,1-1.558.854,6.3,6.3,0,0,1-2,.3A5.817,5.817,0,0,1,1.2-.518V-2.236A5.1,5.1,0,0,0,4.443-1.123a4.406,4.406,0,0,0,1.323-.186,2.967,2.967,0,0,0,1.016-.537,2.386,2.386,0,0,0,.654-.85,2.653,2.653,0,0,0,.229-1.123q0-2.744-3.906-2.744H2.6V-7.92H3.7q3.457,0,3.457-2.578,0-2.383-2.637-2.383a4.49,4.49,0,0,0-2.783,1v-1.553a6.085,6.085,0,0,1,3.184-.8,4.892,4.892,0,0,1,1.592.244,3.647,3.647,0,0,1,1.221.684,3.029,3.029,0,0,1,.786,1.055A3.255,3.255,0,0,1,8.8-10.9,3.418,3.418,0,0,1,6.006-7.344V-7.3a4.418,4.418,0,0,1,1.318.347,3.518,3.518,0,0,1,1.045.7,3.113,3.113,0,0,1,.688,1.011A3.227,3.227,0,0,1,9.307-3.965Z" transform="translate(234 645)" fill="#707070"/>
  </g>
</svg>
