<svg xmlns="http://www.w3.org/2000/svg" width="40" height="40" viewBox="0 0 40 40">
  <g id="_3_rounded" data-name="3_rounded" transform="translate(-219 -616)">
    <g id="Path_60" data-name="Path 60" transform="translate(219 616)" fill="rgba(255,255,255,0)">
      <path d="M 20 1 C 17.4345703125 1 14.94642066955566 1.502220153808594 12.60465049743652 2.492698669433594 C 10.34226036071777 3.449611663818359 8.310220718383789 4.819721221923828 6.564968109130859 6.564968109130859 C 4.819721221923828 8.310220718383789 3.449611663818359 10.34226036071777 2.492698669433594 12.60465049743652 C 1.502220153808594 14.94642066955566 1 17.4345703125 1 20 C 1 22.5654296875 1.502220153808594 25.05358123779297 2.492698669433594 27.39535140991211 C 3.449611663818359 29.65773963928223 4.819721221923828 31.68978118896484 6.564968109130859 33.43502807617188 C 8.310220718383789 35.18027877807617 10.34226036071777 36.55038833618164 12.60465049743652 37.50730133056641 C 14.94642066955566 38.49777984619141 17.4345703125 39 20 39 C 22.5654296875 39 25.05358123779297 38.49777984619141 27.39535140991211 37.50730133056641 C 29.65773963928223 36.55038833618164 31.68978118896484 35.18027877807617 33.43502807617188 33.43502807617188 C 35.18027877807617 31.68978118896484 36.55038833618164 29.65773963928223 37.50730133056641 27.39535140991211 C 38.49777984619141 25.05358123779297 39 22.5654296875 39 20 C 39 17.4345703125 38.49777984619141 14.94642066955566 37.50730133056641 12.60465049743652 C 36.55038833618164 10.34226036071777 35.18027877807617 8.310220718383789 33.43502807617188 6.564968109130859 C 31.68978118896484 4.819721221923828 29.65773963928223 3.449611663818359 27.39535140991211 2.492698669433594 C 25.05358123779297 1.502220153808594 22.5654296875 1 20 1 M 20 0 C 31.04570007324219 0 40 8.954299926757812 40 20 C 40 31.04570007324219 31.04570007324219 40 20 40 C 8.954299926757812 40 0 31.04570007324219 0 20 C 0 8.954299926757812 8.954299926757812 0 20 0 Z" stroke="none" fill="#707070"/>
    </g>
    <path id="Path_59" data-name="Path 59" d="M9.307-3.965A4.082,4.082,0,0,1,8.95-2.241,3.806,3.806,0,0,1,7.944-.913a4.643,4.643,0,0,1-1.558.854,6.3,6.3,0,0,1-2,.3A5.817,5.817,0,0,1,1.2-.518V-2.236A5.1,5.1,0,0,0,4.443-1.123a4.406,4.406,0,0,0,1.323-.186,2.967,2.967,0,0,0,1.016-.537,2.386,2.386,0,0,0,.654-.85,2.653,2.653,0,0,0,.229-1.123q0-2.744-3.906-2.744H2.6V-7.92H3.7q3.457,0,3.457-2.578,0-2.383-2.637-2.383a4.49,4.49,0,0,0-2.783,1v-1.553a6.085,6.085,0,0,1,3.184-.8,4.892,4.892,0,0,1,1.592.244,3.647,3.647,0,0,1,1.221.684,3.029,3.029,0,0,1,.786,1.055A3.255,3.255,0,0,1,8.8-10.9,3.418,3.418,0,0,1,6.006-7.344V-7.3a4.418,4.418,0,0,1,1.318.347,3.518,3.518,0,0,1,1.045.7,3.113,3.113,0,0,1,.688,1.011A3.227,3.227,0,0,1,9.307-3.965Z" transform="translate(234 645)" fill="#707070"/>
  </g>
</svg>
