<svg xmlns="http://www.w3.org/2000/svg" width="40" height="40" viewBox="0 0 40 40">
  <g id="_5_plain" data-name="5_plain" transform="translate(-145 -559)">
    <path id="Path_22" data-name="Path 22" d="M9.463-4.277a4.713,4.713,0,0,1-.352,1.855A4.057,4.057,0,0,1,8.11-1a4.482,4.482,0,0,1-1.567.918A6.13,6.13,0,0,1,4.5.244,5.638,5.638,0,0,1,1.6-.342v-1.7a5.333,5.333,0,0,0,2.92.918,3.951,3.951,0,0,0,1.372-.225,3.049,3.049,0,0,0,1.04-.625,2.676,2.676,0,0,0,.659-.967,3.273,3.273,0,0,0,.229-1.24A2.657,2.657,0,0,0,6.9-6.323,4.026,4.026,0,0,0,4.238-7.1q-.283,0-.6.01t-.625.024q-.312.015-.61.034t-.542.049L2.344-14H8.818v1.445H3.73L3.447-8.447q.312-.02.664-.034T4.736-8.5A6.285,6.285,0,0,1,6.729-8.2a4.221,4.221,0,0,1,1.489.835A3.5,3.5,0,0,1,9.146-6.04,4.671,4.671,0,0,1,9.463-4.277Z" transform="translate(160 588)" fill="#707070"/>
  </g>
</svg>
