<svg xmlns="http://www.w3.org/2000/svg" width="40" height="40" viewBox="0 0 40 40">
  <g id="_5_rounded" data-name="5_rounded" transform="translate(-145 -559)">
    <g id="Path_50" data-name="Path 50" transform="translate(145 559)" fill="rgba(255,255,255,0)">
      <path d="M 20 1 C 17.4345703125 1 14.94642066955566 1.502220153808594 12.60465049743652 2.492698669433594 C 10.34226036071777 3.449611663818359 8.310220718383789 4.819721221923828 6.564968109130859 6.564968109130859 C 4.819721221923828 8.310220718383789 3.449611663818359 10.34226036071777 2.492698669433594 12.60465049743652 C 1.502220153808594 14.94642066955566 1 17.4345703125 1 20 C 1 22.5654296875 1.502220153808594 25.05358123779297 2.492698669433594 27.39535140991211 C 3.449611663818359 29.65773963928223 4.819721221923828 31.68978118896484 6.564968109130859 33.43502807617188 C 8.310220718383789 35.18027877807617 10.34226036071777 36.55038833618164 12.60465049743652 37.50730133056641 C 14.94642066955566 38.49777984619141 17.4345703125 39 20 39 C 22.5654296875 39 25.05358123779297 38.49777984619141 27.39535140991211 37.50730133056641 C 29.65773963928223 36.55038833618164 31.68978118896484 35.18027877807617 33.43502807617188 33.43502807617188 C 35.18027877807617 31.68978118896484 36.55038833618164 29.65773963928223 37.50730133056641 27.39535140991211 C 38.49777984619141 25.05358123779297 39 22.5654296875 39 20 C 39 17.4345703125 38.49777984619141 14.94642066955566 37.50730133056641 12.60465049743652 C 36.55038833618164 10.34226036071777 35.18027877807617 8.310220718383789 33.43502807617188 6.564968109130859 C 31.68978118896484 4.819721221923828 29.65773963928223 3.449611663818359 27.39535140991211 2.492698669433594 C 25.05358123779297 1.502220153808594 22.5654296875 1 20 1 M 20 0 C 31.04570007324219 0 40 8.954299926757812 40 20 C 40 31.04570007324219 31.04570007324219 40 20 40 C 8.954299926757812 40 0 31.04570007324219 0 20 C 0 8.954299926757812 8.954299926757812 0 20 0 Z" stroke="none" fill="#707070"/>
    </g>
    <path id="Path_49" data-name="Path 49" d="M9.463-4.277a4.713,4.713,0,0,1-.352,1.855A4.057,4.057,0,0,1,8.11-1a4.482,4.482,0,0,1-1.567.918A6.13,6.13,0,0,1,4.5.244,5.638,5.638,0,0,1,1.6-.342v-1.7a5.333,5.333,0,0,0,2.92.918,3.951,3.951,0,0,0,1.372-.225,3.049,3.049,0,0,0,1.04-.625,2.676,2.676,0,0,0,.659-.967,3.273,3.273,0,0,0,.229-1.24A2.657,2.657,0,0,0,6.9-6.323,4.026,4.026,0,0,0,4.238-7.1q-.283,0-.6.01t-.625.024q-.312.015-.61.034t-.542.049L2.344-14H8.818v1.445H3.73L3.447-8.447q.312-.02.664-.034T4.736-8.5A6.285,6.285,0,0,1,6.729-8.2a4.221,4.221,0,0,1,1.489.835A3.5,3.5,0,0,1,9.146-6.04,4.671,4.671,0,0,1,9.463-4.277Z" transform="translate(160 588)" fill="#707070"/>
  </g>
</svg>
