<svg xmlns="http://www.w3.org/2000/svg" width="40" height="40" viewBox="0 0 40 40">
  <g id="_6_plain" data-name="6_plain" transform="translate(-219 -559)">
    <path id="Path_20" data-name="Path 20" d="M9.98-4.443a5.188,5.188,0,0,1-.332,1.885A4.531,4.531,0,0,1,8.73-1.074a4.1,4.1,0,0,1-1.4.972A4.423,4.423,0,0,1,5.576.244,4,4,0,0,1,3.687-.2,4,4,0,0,1,2.271-1.46a6.066,6.066,0,0,1-.884-2.017,10.925,10.925,0,0,1-.3-2.686,12.62,12.62,0,0,1,.405-3.315,8.054,8.054,0,0,1,1.152-2.549,5.312,5.312,0,0,1,1.8-1.636A4.828,4.828,0,0,1,6.8-14.238a5.669,5.669,0,0,1,2.324.4v1.514a4.936,4.936,0,0,0-2.285-.557,3.405,3.405,0,0,0-1.689.42,3.88,3.88,0,0,0-1.289,1.187,5.787,5.787,0,0,0-.825,1.851,9.389,9.389,0,0,0-.288,2.412h.039A3.363,3.363,0,0,1,5.977-8.76a4.2,4.2,0,0,1,1.655.313,3.574,3.574,0,0,1,1.26.884A3.979,3.979,0,0,1,9.7-6.2,5.186,5.186,0,0,1,9.98-4.443ZM8.34-4.238a4.358,4.358,0,0,0-.186-1.318,2.86,2.86,0,0,0-.532-1,2.3,2.3,0,0,0-.854-.63A2.876,2.876,0,0,0,5.615-7.4a2.7,2.7,0,0,0-1.1.225,2.748,2.748,0,0,0-.879.61,2.828,2.828,0,0,0-.581.9,2.845,2.845,0,0,0-.21,1.089,4.344,4.344,0,0,0,.205,1.353,3.494,3.494,0,0,0,.576,1.1,2.74,2.74,0,0,0,.884.737,2.414,2.414,0,0,0,1.138.269,2.605,2.605,0,0,0,1.1-.229,2.462,2.462,0,0,0,.85-.64,2.961,2.961,0,0,0,.547-.981A3.89,3.89,0,0,0,8.34-4.238Z" transform="translate(234 588)" fill="#707070"/>
  </g>
</svg>
