<svg xmlns="http://www.w3.org/2000/svg" width="40" height="40" viewBox="0 0 40 40">
  <g id="_6_rounded" data-name="6_rounded" transform="translate(-219 -559)">
    <g id="Path_52" data-name="Path 52" transform="translate(219 559)" fill="rgba(255,255,255,0)">
      <path d="M 20 1 C 17.4345703125 1 14.94642066955566 1.502220153808594 12.60465049743652 2.492698669433594 C 10.34226036071777 3.449611663818359 8.310220718383789 4.819721221923828 6.564968109130859 6.564968109130859 C 4.819721221923828 8.310220718383789 3.449611663818359 10.34226036071777 2.492698669433594 12.60465049743652 C 1.502220153808594 14.94642066955566 1 17.4345703125 1 20 C 1 22.5654296875 1.502220153808594 25.05358123779297 2.492698669433594 27.39535140991211 C 3.449611663818359 29.65773963928223 4.819721221923828 31.68978118896484 6.564968109130859 33.43502807617188 C 8.310220718383789 35.18027877807617 10.34226036071777 36.55038833618164 12.60465049743652 37.50730133056641 C 14.94642066955566 38.49777984619141 17.4345703125 39 20 39 C 22.5654296875 39 25.05358123779297 38.49777984619141 27.39535140991211 37.50730133056641 C 29.65773963928223 36.55038833618164 31.68978118896484 35.18027877807617 33.43502807617188 33.43502807617188 C 35.18027877807617 31.68978118896484 36.55038833618164 29.65773963928223 37.50730133056641 27.39535140991211 C 38.49777984619141 25.05358123779297 39 22.5654296875 39 20 C 39 17.4345703125 38.49777984619141 14.94642066955566 37.50730133056641 12.60465049743652 C 36.55038833618164 10.34226036071777 35.18027877807617 8.310220718383789 33.43502807617188 6.564968109130859 C 31.68978118896484 4.819721221923828 29.65773963928223 3.449611663818359 27.39535140991211 2.492698669433594 C 25.05358123779297 1.502220153808594 22.5654296875 1 20 1 M 20 0 C 31.04570007324219 0 40 8.954299926757812 40 20 C 40 31.04570007324219 31.04570007324219 40 20 40 C 8.954299926757812 40 0 31.04570007324219 0 20 C 0 8.954299926757812 8.954299926757812 0 20 0 Z" stroke="none" fill="#707070"/>
    </g>
    <path id="Path_51" data-name="Path 51" d="M9.98-4.443a5.188,5.188,0,0,1-.332,1.885A4.531,4.531,0,0,1,8.73-1.074a4.1,4.1,0,0,1-1.4.972A4.423,4.423,0,0,1,5.576.244,4,4,0,0,1,3.687-.2,4,4,0,0,1,2.271-1.46a6.066,6.066,0,0,1-.884-2.017,10.925,10.925,0,0,1-.3-2.686,12.62,12.62,0,0,1,.405-3.315,8.054,8.054,0,0,1,1.152-2.549,5.312,5.312,0,0,1,1.8-1.636A4.828,4.828,0,0,1,6.8-14.238a5.669,5.669,0,0,1,2.324.4v1.514a4.936,4.936,0,0,0-2.285-.557,3.405,3.405,0,0,0-1.689.42,3.88,3.88,0,0,0-1.289,1.187,5.787,5.787,0,0,0-.825,1.851,9.389,9.389,0,0,0-.288,2.412h.039A3.363,3.363,0,0,1,5.977-8.76a4.2,4.2,0,0,1,1.655.313,3.574,3.574,0,0,1,1.26.884A3.979,3.979,0,0,1,9.7-6.2,5.186,5.186,0,0,1,9.98-4.443ZM8.34-4.238a4.358,4.358,0,0,0-.186-1.318,2.86,2.86,0,0,0-.532-1,2.3,2.3,0,0,0-.854-.63A2.876,2.876,0,0,0,5.615-7.4a2.7,2.7,0,0,0-1.1.225,2.748,2.748,0,0,0-.879.61,2.828,2.828,0,0,0-.581.9,2.845,2.845,0,0,0-.21,1.089,4.344,4.344,0,0,0,.205,1.353,3.494,3.494,0,0,0,.576,1.1,2.74,2.74,0,0,0,.884.737,2.414,2.414,0,0,0,1.138.269,2.605,2.605,0,0,0,1.1-.229,2.462,2.462,0,0,0,.85-.64,2.961,2.961,0,0,0,.547-.981A3.89,3.89,0,0,0,8.34-4.238Z" transform="translate(234 588)" fill="#707070"/>
  </g>
</svg>
