<svg xmlns="http://www.w3.org/2000/svg" width="40" height="40" viewBox="0 0 40 40">
  <g id="_8_rounded" data-name="8_rounded" transform="translate(-145 -502)">
    <g id="Path_44" data-name="Path 44" transform="translate(145 502)" fill="rgba(255,255,255,0)">
      <path d="M 20 1 C 17.4345703125 1 14.94642066955566 1.502220153808594 12.60465049743652 2.492698669433594 C 10.34226036071777 3.449611663818359 8.310220718383789 4.819721221923828 6.564968109130859 6.564968109130859 C 4.819721221923828 8.310220718383789 3.449611663818359 10.34226036071777 2.492698669433594 12.60465049743652 C 1.502220153808594 14.94642066955566 1 17.4345703125 1 20 C 1 22.5654296875 1.502220153808594 25.05358123779297 2.492698669433594 27.39535140991211 C 3.449611663818359 29.65773963928223 4.819721221923828 31.68978118896484 6.564968109130859 33.43502807617188 C 8.310220718383789 35.18027877807617 10.34226036071777 36.55038833618164 12.60465049743652 37.50730133056641 C 14.94642066955566 38.49777984619141 17.4345703125 39 20 39 C 22.5654296875 39 25.05358123779297 38.49777984619141 27.39535140991211 37.50730133056641 C 29.65773963928223 36.55038833618164 31.68978118896484 35.18027877807617 33.43502807617188 33.43502807617188 C 35.18027877807617 31.68978118896484 36.55038833618164 29.65773963928223 37.50730133056641 27.39535140991211 C 38.49777984619141 25.05358123779297 39 22.5654296875 39 20 C 39 17.4345703125 38.49777984619141 14.94642066955566 37.50730133056641 12.60465049743652 C 36.55038833618164 10.34226036071777 35.18027877807617 8.310220718383789 33.43502807617188 6.564968109130859 C 31.68978118896484 4.819721221923828 29.65773963928223 3.449611663818359 27.39535140991211 2.492698669433594 C 25.05358123779297 1.502220153808594 22.5654296875 1 20 1 M 20 0 C 31.04570007324219 0 40 8.954299926757812 40 20 C 40 31.04570007324219 31.04570007324219 40 20 40 C 8.954299926757812 40 0 31.04570007324219 0 20 C 0 8.954299926757812 8.954299926757812 0 20 0 Z" stroke="none" fill="#707070"/>
    </g>
    <path id="Path_43" data-name="Path 43" d="M.879-3.906a3.726,3.726,0,0,1,.176-1.118,4.05,4.05,0,0,1,.5-1.05,4.162,4.162,0,0,1,.811-.889,3.864,3.864,0,0,1,1.1-.635A4.152,4.152,0,0,1,2.021-8.9a3.083,3.083,0,0,1-.537-1.763,3.4,3.4,0,0,1,.3-1.426,3.434,3.434,0,0,1,.825-1.133,3.815,3.815,0,0,1,1.25-.747,4.451,4.451,0,0,1,1.563-.269,4.408,4.408,0,0,1,1.572.273,3.882,3.882,0,0,1,1.25.752,3.376,3.376,0,0,1,.82,1.133,3.425,3.425,0,0,1,.293,1.416A3.083,3.083,0,0,1,8.818-8.9,4.2,4.2,0,0,1,7.393-7.6a3.829,3.829,0,0,1,1.084.635,4.223,4.223,0,0,1,.806.889,4.05,4.05,0,0,1,.5,1.05,3.726,3.726,0,0,1,.176,1.118,4.159,4.159,0,0,1-.332,1.68A3.753,3.753,0,0,1,8.7-.923a4.306,4.306,0,0,1-1.436.845,5.366,5.366,0,0,1-1.841.3,5.294,5.294,0,0,1-1.826-.3A4.371,4.371,0,0,1,2.158-.923a3.779,3.779,0,0,1-.942-1.3A4.107,4.107,0,0,1,.879-3.906Zm1.738-.137a3.308,3.308,0,0,0,.2,1.182,2.547,2.547,0,0,0,.566.9,2.473,2.473,0,0,0,.889.571,3.21,3.21,0,0,0,1.157.2A3.049,3.049,0,0,0,6.563-1.4a2.64,2.64,0,0,0,.894-.576,2.591,2.591,0,0,0,.586-.9,3.142,3.142,0,0,0,.21-1.172,2.994,2.994,0,0,0-.2-1.1,2.75,2.75,0,0,0-.571-.9,2.684,2.684,0,0,0-.889-.615A2.891,2.891,0,0,0,5.43-6.885a2.922,2.922,0,0,0-1.118.21,2.676,2.676,0,0,0-.889.586,2.714,2.714,0,0,0-.591.9A2.989,2.989,0,0,0,2.617-4.043Zm.5-6.494a2.333,2.333,0,0,0,.181.923,2.325,2.325,0,0,0,.5.742,2.34,2.34,0,0,0,.737.5,2.249,2.249,0,0,0,.9.181,2.232,2.232,0,0,0,.9-.186,2.334,2.334,0,0,0,.737-.5,2.437,2.437,0,0,0,.5-.742,2.256,2.256,0,0,0,.186-.913,2.394,2.394,0,0,0-.181-.937,2.3,2.3,0,0,0-.493-.742,2.308,2.308,0,0,0-.737-.493,2.309,2.309,0,0,0-.913-.181,2.33,2.33,0,0,0-.942.186,2.277,2.277,0,0,0-.732.5,2.2,2.2,0,0,0-.474.747A2.525,2.525,0,0,0,3.115-10.537Z" transform="translate(160 531)" fill="#707070"/>
  </g>
</svg>
