<svg xmlns="http://www.w3.org/2000/svg" width="40" height="40" viewBox="0 0 40 40">
  <g id="_9_rounded" data-name="9_rounded" transform="translate(-219 -502)">
    <g id="Path_46" data-name="Path 46" transform="translate(219 502)" fill="rgba(255,255,255,0)">
      <path d="M 20 1 C 17.4345703125 1 14.94642066955566 1.502220153808594 12.60465049743652 2.492698669433594 C 10.34226036071777 3.449611663818359 8.310220718383789 4.819721221923828 6.564968109130859 6.564968109130859 C 4.819721221923828 8.310220718383789 3.449611663818359 10.34226036071777 2.492698669433594 12.60465049743652 C 1.502220153808594 14.94642066955566 1 17.4345703125 1 20 C 1 22.5654296875 1.502220153808594 25.05358123779297 2.492698669433594 27.39535140991211 C 3.449611663818359 29.65773963928223 4.819721221923828 31.68978118896484 6.564968109130859 33.43502807617188 C 8.310220718383789 35.18027877807617 10.34226036071777 36.55038833618164 12.60465049743652 37.50730133056641 C 14.94642066955566 38.49777984619141 17.4345703125 39 20 39 C 22.5654296875 39 25.05358123779297 38.49777984619141 27.39535140991211 37.50730133056641 C 29.65773963928223 36.55038833618164 31.68978118896484 35.18027877807617 33.43502807617188 33.43502807617188 C 35.18027877807617 31.68978118896484 36.55038833618164 29.65773963928223 37.50730133056641 27.39535140991211 C 38.49777984619141 25.05358123779297 39 22.5654296875 39 20 C 39 17.4345703125 38.49777984619141 14.94642066955566 37.50730133056641 12.60465049743652 C 36.55038833618164 10.34226036071777 35.18027877807617 8.310220718383789 33.43502807617188 6.564968109130859 C 31.68978118896484 4.819721221923828 29.65773963928223 3.449611663818359 27.39535140991211 2.492698669433594 C 25.05358123779297 1.502220153808594 22.5654296875 1 20 1 M 20 0 C 31.04570007324219 0 40 8.954299926757812 40 20 C 40 31.04570007324219 31.04570007324219 40 20 40 C 8.954299926757812 40 0 31.04570007324219 0 20 C 0 8.954299926757812 8.954299926757812 0 20 0 Z" stroke="none" fill="#707070"/>
    </g>
    <path id="Path_45" data-name="Path 45" d="M9.8-7.842a13.949,13.949,0,0,1-.381,3.423A7.635,7.635,0,0,1,8.311-1.88,4.928,4.928,0,0,1,6.523-.3a5.181,5.181,0,0,1-2.4.542A5.755,5.755,0,0,1,1.68-.244V-1.777a4.977,4.977,0,0,0,2.48.654,3.6,3.6,0,0,0,1.694-.391A3.508,3.508,0,0,0,7.119-2.651,5.586,5.586,0,0,0,7.91-4.492,10.394,10.394,0,0,0,8.184-7H8.145A3.2,3.2,0,0,1,5.02-5.2a4.2,4.2,0,0,1-1.65-.317,3.781,3.781,0,0,1-1.3-.9,4.112,4.112,0,0,1-.85-1.382,4.962,4.962,0,0,1-.3-1.768,5.148,5.148,0,0,1,.337-1.895,4.415,4.415,0,0,1,.938-1.479A4.2,4.2,0,0,1,3.618-13.9a4.663,4.663,0,0,1,1.8-.342,3.989,3.989,0,0,1,1.87.425,3.748,3.748,0,0,1,1.372,1.24,6.128,6.128,0,0,1,.85,2.007A11.458,11.458,0,0,1,9.8-7.842ZM8.076-9.277a4.876,4.876,0,0,0-.21-1.475,3.57,3.57,0,0,0-.581-1.138,2.607,2.607,0,0,0-.884-.732,2.446,2.446,0,0,0-1.118-.259,2.536,2.536,0,0,0-1.074.229,2.582,2.582,0,0,0-.864.645,3.077,3.077,0,0,0-.576.986,3.583,3.583,0,0,0-.21,1.245,4.1,4.1,0,0,0,.2,1.328,2.774,2.774,0,0,0,.571.991,2.467,2.467,0,0,0,.894.62,3.015,3.015,0,0,0,1.157.215,2.652,2.652,0,0,0,1.05-.21A2.78,2.78,0,0,0,7.29-7.4a2.61,2.61,0,0,0,.576-.84A2.582,2.582,0,0,0,8.076-9.277Z" transform="translate(234 531)" fill="#707070"/>
  </g>
</svg>
