<svg xmlns="http://www.w3.org/2000/svg" width="40" height="40" viewBox="0 0 40 40">
  <g id="AC_plain" transform="translate(-125 -352)">
    <path id="Path_62" data-name="Path 62" d="M20,0A20,20,0,1,1,0,20,20,20,0,0,1,20,0Z" transform="translate(125 352)" fill="none"/>
    <path id="Path_61" data-name="Path 61" d="M12.676,0H10.859L9.375-3.926H3.438L2.041,0H.215L5.586-14h1.7ZM8.838-5.4l-2.2-5.967a5.713,5.713,0,0,1-.215-.937H6.387a5.231,5.231,0,0,1-.225.938L3.984-5.4ZM23.877-.586a8.214,8.214,0,0,1-3.867.82,6.236,6.236,0,0,1-4.785-1.924,7.1,7.1,0,0,1-1.8-5.049,7.44,7.44,0,0,1,2.021-5.43,6.861,6.861,0,0,1,5.127-2.07,8.22,8.22,0,0,1,3.3.576v1.748a6.694,6.694,0,0,0-3.32-.84,5.1,5.1,0,0,0-3.911,1.611,6.07,6.07,0,0,0-1.5,4.307,5.776,5.776,0,0,0,1.4,4.077A4.768,4.768,0,0,0,20.225-1.24a6.9,6.9,0,0,0,3.652-.937Z" transform="translate(133 380)" fill="#3700b3"/>
  </g>
</svg>
