<svg xmlns="http://www.w3.org/2000/svg" width="40" height="40" viewBox="0 0 40 40">
  <g id="back_plain" transform="translate(-122 -444)">
    <path id="Path_63" data-name="Path 63" d="M20,0A20,20,0,1,1,0,20,20,20,0,0,1,20,0Z" transform="translate(122 444)" fill="none"/>
    <g id="backspace" transform="translate(130.875 451.5)">
      <g id="Path_1" data-name="Path 1" transform="translate(-5.892 -2.156)" fill="none">
        <path d="M15.407,18.856l3.8-3.315,3.8,3.315,1.015-.886-3.8-3.315,3.8-3.316L23,10.454l-3.8,3.316-3.8-3.315-1.015.886,3.8,3.315-3.8,3.316,1.015.886Z" stroke="none"/>
        <path d="M 15.40763187408447 18.85671997070312 L 14.3926420211792 17.97090911865234 L 18.19104194641113 14.65535926818848 L 14.39200210571289 11.34036922454834 L 15.40699195861816 10.45455932617188 L 19.20603179931641 13.76954936981201 L 23.00379180908203 10.45399951934814 L 24.01879119873047 11.33981895446777 L 20.22038269042969 14.65535926818848 L 24.02006149291992 17.9703483581543 L 23.00507164001465 18.85615921020508 L 19.20603179931641 15.54116916656494 L 15.40699195861816 18.85615921020508 L 15.40763187408447 18.85671997070312 Z" stroke="none" fill="#3700b3"/>
      </g>
      <g id="Path_2" data-name="Path 2" transform="translate(0 0)" fill="none">
        <path d="M20.125,4.5H8.568a1,1,0,0,0-.726.312L1.125,11.9v1.2l6.717,7.088a1,1,0,0,0,.726.312H20.125a1,1,0,0,0,1-1V5.5A1,1,0,0,0,20.125,4.5Zm-.334,14.666H8.712l-6.253-6.6v-.135l6.253-6.6H19.791Z" stroke="none"/>
        <path d="M 8.568329811096191 4.500003814697266 L 20.12474060058594 4.500003814697266 C 20.67703056335449 4.500324249267578 21.12467956542969 4.947973251342773 21.125 5.500263214111328 L 21.125 19.49925231933594 C 21.12467002868652 20.05155372619629 20.67703056335449 20.49919319152832 20.12474060058594 20.4995231628418 L 8.568340301513672 20.4995231628418 C 8.293849945068359 20.49905395507812 8.031530380249023 20.38620376586914 7.842430114746094 20.18723297119141 L 1.125 13.09885311126709 L 1.125 11.90067386627197 L 7.842430114746094 4.812282562255859 C 8.031519889831543 4.613323211669922 8.293849945068359 4.500473022460938 8.568329811096191 4.500003814697266 Z M 19.79111099243164 19.16623306274414 L 19.79111099243164 5.833293914794922 L 8.711739540100098 5.833293914794922 L 2.458290100097656 12.43221378326416 L 2.458290100097656 12.5673131942749 L 8.711739540100098 19.16623306274414 L 19.79111099243164 19.16623306274414 Z" stroke="none" fill="#3700b3"/>
      </g>
    </g>
  </g>
</svg>
