<svg xmlns="http://www.w3.org/2000/svg" width="40" height="40" viewBox="0 0 40 40">
  <g id="back" transform="translate(-122 -444)">
    <g id="Path_38" data-name="Path 38" transform="translate(122 444)" fill="rgba(255,255,255,0)">
      <path d="M 20 1 C 17.4345703125 1 14.94642066955566 1.502220153808594 12.60465049743652 2.492698669433594 C 10.34226036071777 3.449611663818359 8.310220718383789 4.819721221923828 6.564968109130859 6.564968109130859 C 4.819721221923828 8.310220718383789 3.449611663818359 10.34226036071777 2.492698669433594 12.60465049743652 C 1.502220153808594 14.94642066955566 1 17.4345703125 1 20 C 1 22.5654296875 1.502220153808594 25.05358123779297 2.492698669433594 27.39535140991211 C 3.449611663818359 29.65773963928223 4.819721221923828 31.68978118896484 6.564968109130859 33.43502807617188 C 8.310220718383789 35.18027877807617 10.34226036071777 36.55038833618164 12.60465049743652 37.50730133056641 C 14.94642066955566 38.49777984619141 17.4345703125 39 20 39 C 22.5654296875 39 25.05358123779297 38.49777984619141 27.39535140991211 37.50730133056641 C 29.65773963928223 36.55038833618164 31.68978118896484 35.18027877807617 33.43502807617188 33.43502807617188 C 35.18027877807617 31.68978118896484 36.55038833618164 29.65773963928223 37.50730133056641 27.39535140991211 C 38.49777984619141 25.05358123779297 39 22.5654296875 39 20 C 39 17.4345703125 38.49777984619141 14.94642066955566 37.50730133056641 12.60465049743652 C 36.55038833618164 10.34226036071777 35.18027877807617 8.310220718383789 33.43502807617188 6.564968109130859 C 31.68978118896484 4.819721221923828 29.65773963928223 3.449611663818359 27.39535140991211 2.492698669433594 C 25.05358123779297 1.502220153808594 22.5654296875 1 20 1 M 20 0 C 31.04570007324219 0 40 8.954299926757812 40 20 C 40 31.04570007324219 31.04570007324219 40 20 40 C 8.954299926757812 40 0 31.04570007324219 0 20 C 0 8.954299926757812 8.954299926757812 0 20 0 Z" stroke="none" fill="#3700b3"/>
    </g>
    <g id="backspace" transform="translate(130.875 451.5)">
      <g id="Path_1" data-name="Path 1" transform="translate(-5.892 -2.156)" fill="none">
        <path d="M15.407,18.856l3.8-3.315,3.8,3.315,1.015-.886-3.8-3.315,3.8-3.316L23,10.454l-3.8,3.316-3.8-3.315-1.015.886,3.8,3.315-3.8,3.316,1.015.886Z" stroke="none"/>
        <path d="M 15.40763187408447 18.85671997070312 L 14.3926420211792 17.97090911865234 L 18.19104194641113 14.65535926818848 L 14.39200210571289 11.34036922454834 L 15.40699195861816 10.45455932617188 L 19.20603179931641 13.76954936981201 L 23.00379180908203 10.45399951934814 L 24.01879119873047 11.33981895446777 L 20.22038269042969 14.65535926818848 L 24.02006149291992 17.9703483581543 L 23.00507164001465 18.85615921020508 L 19.20603179931641 15.54116916656494 L 15.40699195861816 18.85615921020508 L 15.40763187408447 18.85671997070312 Z" stroke="none" fill="#3700b3"/>
      </g>
      <g id="Path_2" data-name="Path 2" transform="translate(0 0)" fill="none">
        <path d="M20.125,4.5H8.568a1,1,0,0,0-.726.312L1.125,11.9v1.2l6.717,7.088a1,1,0,0,0,.726.312H20.125a1,1,0,0,0,1-1V5.5A1,1,0,0,0,20.125,4.5Zm-.334,14.666H8.712l-6.253-6.6v-.135l6.253-6.6H19.791Z" stroke="none"/>
        <path d="M 8.568329811096191 4.500003814697266 L 20.12474060058594 4.500003814697266 C 20.67703056335449 4.500324249267578 21.12467956542969 4.947973251342773 21.125 5.500263214111328 L 21.125 19.49925231933594 C 21.12467002868652 20.05155372619629 20.67703056335449 20.49919319152832 20.12474060058594 20.4995231628418 L 8.568340301513672 20.4995231628418 C 8.293849945068359 20.49905395507812 8.031530380249023 20.38620376586914 7.842430114746094 20.18723297119141 L 1.125 13.09885311126709 L 1.125 11.90067386627197 L 7.842430114746094 4.812282562255859 C 8.031519889831543 4.613323211669922 8.293849945068359 4.500473022460938 8.568329811096191 4.500003814697266 Z M 19.79111099243164 19.16623306274414 L 19.79111099243164 5.833293914794922 L 8.711739540100098 5.833293914794922 L 2.458290100097656 12.43221378326416 L 2.458290100097656 12.5673131942749 L 8.711739540100098 19.16623306274414 L 19.79111099243164 19.16623306274414 Z" stroke="none" fill="#3700b3"/>
      </g>
    </g>
  </g>
</svg>
