<svg xmlns="http://www.w3.org/2000/svg" width="40" height="40" viewBox="0 0 40 40">
  <g id="C_plain" transform="translate(-63 -388)">
    <path id="Path_75" data-name="Path 75" d="M11.367-.586A8.214,8.214,0,0,1,7.5.234,6.236,6.236,0,0,1,2.715-1.689a7.1,7.1,0,0,1-1.8-5.049,7.44,7.44,0,0,1,2.021-5.43,6.861,6.861,0,0,1,5.127-2.07,8.22,8.22,0,0,1,3.3.576v1.748a6.694,6.694,0,0,0-3.32-.84,5.1,5.1,0,0,0-3.911,1.611,6.07,6.07,0,0,0-1.5,4.307,5.776,5.776,0,0,0,1.4,4.077A4.768,4.768,0,0,0,7.715-1.24a6.9,6.9,0,0,0,3.652-.937Z" transform="translate(77 416)" fill="#3700b3"/>
  </g>
</svg>
