<svg xmlns="http://www.w3.org/2000/svg" width="40" height="40" viewBox="0 0 40 40">
  <g id="perc_plain" transform="translate(-219 -445)">
    <path id="Path_74" data-name="Path 74" d="M20,0A20,20,0,1,1,0,20,20,20,0,0,1,20,0Z" transform="translate(219 445)" fill="none"/>
    <path id="Path_73" data-name="Path 73" d="M4.34-7.681A3.247,3.247,0,0,1,1.8-8.728a4.018,4.018,0,0,1-.945-2.8,4.317,4.317,0,0,1,1-3.013,3.461,3.461,0,0,1,2.7-1.1A3.236,3.236,0,0,1,7.106-14.62a4.17,4.17,0,0,1,.908,2.868A4.219,4.219,0,0,1,7-8.792,3.431,3.431,0,0,1,4.34-7.681Zm.15-6.778a1.934,1.934,0,0,0-1.611.757,3.3,3.3,0,0,0-.591,2.079A3.163,3.163,0,0,0,2.868-9.6a1.914,1.914,0,0,0,1.579.725,1.869,1.869,0,0,0,1.579-.752A3.383,3.383,0,0,0,6.6-11.709a3.227,3.227,0,0,0-.564-2.025A1.847,1.847,0,0,0,4.49-14.459ZM14.652-15.4,4.77.107H3.233L13.105-15.4ZM13.514.236A3.239,3.239,0,0,1,10.979-.816a4.023,4.023,0,0,1-.945-2.793,4.328,4.328,0,0,1,1.01-3.024,3.452,3.452,0,0,1,2.686-1.112,3.223,3.223,0,0,1,2.546,1.031,4.213,4.213,0,0,1,.913,2.89A4.2,4.2,0,0,1,16.172-.875,3.431,3.431,0,0,1,13.514.236Zm.15-6.768a1.935,1.935,0,0,0-1.617.752A3.315,3.315,0,0,0,11.462-3.7a3.125,3.125,0,0,0,.58,2,1.914,1.914,0,0,0,1.579.725A1.865,1.865,0,0,0,15.2-1.724,3.388,3.388,0,0,0,15.77-3.8a3.176,3.176,0,0,0-.564-2.02A1.863,1.863,0,0,0,13.664-6.531Z" transform="translate(230 473)" fill="#3700b3"/>
  </g>
</svg>
