<svg xmlns="http://www.w3.org/2000/svg" width="40" height="40" viewBox="0 0 40 40">
  <g id="perc" transform="translate(-219 -445)">
    <g id="Path_37" data-name="Path 37" transform="translate(219 445)" fill="rgba(255,255,255,0)">
      <path d="M 20 1 C 17.4345703125 1 14.94642066955566 1.502220153808594 12.60465049743652 2.492698669433594 C 10.34226036071777 3.449611663818359 8.310220718383789 4.819721221923828 6.564968109130859 6.564968109130859 C 4.819721221923828 8.310220718383789 3.449611663818359 10.34226036071777 2.492698669433594 12.60465049743652 C 1.502220153808594 14.94642066955566 1 17.4345703125 1 20 C 1 22.5654296875 1.502220153808594 25.05358123779297 2.492698669433594 27.39535140991211 C 3.449611663818359 29.65773963928223 4.819721221923828 31.68978118896484 6.564968109130859 33.43502807617188 C 8.310220718383789 35.18027877807617 10.34226036071777 36.55038833618164 12.60465049743652 37.50730133056641 C 14.94642066955566 38.49777984619141 17.4345703125 39 20 39 C 22.5654296875 39 25.05358123779297 38.49777984619141 27.39535140991211 37.50730133056641 C 29.65773963928223 36.55038833618164 31.68978118896484 35.18027877807617 33.43502807617188 33.43502807617188 C 35.18027877807617 31.68978118896484 36.55038833618164 29.65773963928223 37.50730133056641 27.39535140991211 C 38.49777984619141 25.05358123779297 39 22.5654296875 39 20 C 39 17.4345703125 38.49777984619141 14.94642066955566 37.50730133056641 12.60465049743652 C 36.55038833618164 10.34226036071777 35.18027877807617 8.310220718383789 33.43502807617188 6.564968109130859 C 31.68978118896484 4.819721221923828 29.65773963928223 3.449611663818359 27.39535140991211 2.492698669433594 C 25.05358123779297 1.502220153808594 22.5654296875 1 20 1 M 20 0 C 31.04570007324219 0 40 8.954299926757812 40 20 C 40 31.04570007324219 31.04570007324219 40 20 40 C 8.954299926757812 40 0 31.04570007324219 0 20 C 0 8.954299926757812 8.954299926757812 0 20 0 Z" stroke="none" fill="#3700b3"/>
    </g>
    <path id="Path_36" data-name="Path 36" d="M4.34-7.681A3.247,3.247,0,0,1,1.8-8.728a4.018,4.018,0,0,1-.945-2.8,4.317,4.317,0,0,1,1-3.013,3.461,3.461,0,0,1,2.7-1.1A3.236,3.236,0,0,1,7.106-14.62a4.17,4.17,0,0,1,.908,2.868A4.219,4.219,0,0,1,7-8.792,3.431,3.431,0,0,1,4.34-7.681Zm.15-6.778a1.934,1.934,0,0,0-1.611.757,3.3,3.3,0,0,0-.591,2.079A3.163,3.163,0,0,0,2.868-9.6a1.914,1.914,0,0,0,1.579.725,1.869,1.869,0,0,0,1.579-.752A3.383,3.383,0,0,0,6.6-11.709a3.227,3.227,0,0,0-.564-2.025A1.847,1.847,0,0,0,4.49-14.459ZM14.652-15.4,4.77.107H3.233L13.105-15.4ZM13.514.236A3.239,3.239,0,0,1,10.979-.816a4.023,4.023,0,0,1-.945-2.793,4.328,4.328,0,0,1,1.01-3.024,3.452,3.452,0,0,1,2.686-1.112,3.223,3.223,0,0,1,2.546,1.031,4.213,4.213,0,0,1,.913,2.89A4.2,4.2,0,0,1,16.172-.875,3.431,3.431,0,0,1,13.514.236Zm.15-6.768a1.935,1.935,0,0,0-1.617.752A3.315,3.315,0,0,0,11.462-3.7a3.125,3.125,0,0,0,.58,2,1.914,1.914,0,0,0,1.579.725A1.865,1.865,0,0,0,15.2-1.724,3.388,3.388,0,0,0,15.77-3.8a3.176,3.176,0,0,0-.564-2.02A1.863,1.863,0,0,0,13.664-6.531Z" transform="translate(230 473)" fill="#3700b3"/>
  </g>
</svg>
